<?xml version="1.0" encoding="UTF-8" standalone="no"?>
<!-- Created with Inkscape (http://www.inkscape.org/) -->

<svg
   version="1.1"
   id="svg1"
   width="1464.8715"
   height="427"
   viewBox="0 0 1464.8715 427"
   sodipodi:docname="logoV2B.svg"
   inkscape:version="1.3 (0e150ed6c4, 2023-07-21)"
   xmlns:inkscape="http://www.inkscape.org/namespaces/inkscape"
   xmlns:sodipodi="http://sodipodi.sourceforge.net/DTD/sodipodi-0.dtd"
   xmlns="http://www.w3.org/2000/svg"
   xmlns:svg="http://www.w3.org/2000/svg">
  <defs
     id="defs1" />
  <sodipodi:namedview
     id="namedview1"
     bordercolor="#000000"
     borderopacity="0.25"
     inkscape:showpageshadow="2"
     inkscape:pageopacity="0.0"
     inkscape:pagecheckerboard="0"
     inkscape:deskcolor="#d1d1d1"
     showgrid="false"
     inkscape:zoom="0.64290772"
     inkscape:cx="601.95264"
     inkscape:cy="224.76009"
     inkscape:window-width="1920"
     inkscape:window-height="1017"
     inkscape:window-x="-8"
     inkscape:window-y="361"
     inkscape:window-maximized="1"
     inkscape:current-layer="g1"
     pagecolor="#ffffff" />
  <g
     inkscape:groupmode="layer"
     inkscape:label="Image"
     id="g1"
     transform="translate(-44.128511,-37)">
    <path
       style="fill:#000000"
       d="m 728.66667,235.33333 c -0.94948,-0.94947 -0.79917,-28.57637 0.16372,-30.09314 0.62876,-0.99042 11.04981,-1.20426 48.73469,-1 L 825.5,204.5 l 0.27539,15.75 0.2754,15.75 h -48.35873 c -26.5973,0 -48.65873,-0.3 -49.02539,-0.66667 z"
       id="path11" />
    <path
       style="fill:#000000"
       d="M 553.2426,209.25 553.5,145.5 h 19.5 19.5 l 0.2574,63.75 0.2574,63.75 H 573 552.9852 Z"
       id="path10" />
    <path
       style="fill:#000000"
       d="M 1255.2276,331.3501 1255.5,312.5 l 22.1043,-0.5 22.1042,-0.5 6.8656,-3.5 c 5.2712,-2.68724 7.388,-4.42887 9.1157,-7.5 6.9539,-12.36164 1.9228,-24.97899 -12.1898,-30.57041 -5.9125,-2.34252 -6.5946,-2.38225 -46.7577,-2.7233 l -40.7577,-0.3461 0.2577,-60.6801 L 1216.5,145.5 h 42.5 c 40.8634,0 42.8238,0.0863 50.9097,2.24224 13.0596,3.48202 22.4609,8.61306 30.6793,16.7441 10.6773,10.56394 15.3657,22.45634 15.3962,39.05356 0.034,18.41873 -7.9014,33.23169 -22.1667,41.37891 l -4.9076,2.80288 5.7945,2.83078 c 14.4939,7.08056 24.3269,23.64938 24.2772,40.90763 -0.08,27.68612 -16.3082,47.50982 -45.5013,55.58111 -6.9623,1.92493 -11.2081,2.26747 -33.2537,2.68283 l -25.2725,0.47616 z"
       id="path8" />
    <path
       style="fill:#000000"
       d="M 1060.6099,348.42592 C 1060.2745,347.5517 1060,340.29333 1060,332.2962 v -14.54022 l 36.9298,-50.7802 c 20.3114,-27.92911 37.8494,-52.58291 38.9735,-54.78622 4.4845,-8.79035 3.9346,-17.14947 -1.5258,-23.19344 -4.2563,-4.7113 -8.9995,-6.43791 -15.5532,-5.66172 -10.0812,1.19397 -17.0855,7.99617 -18.4447,17.91247 -0.4849,3.53782 -1.1138,4.71521 -2.754,5.15537 -2.8537,0.76585 -31.0445,0.75797 -33.0438,-0.009 -2.1102,-0.80974 -2.1468,-11.75007 -0.067,-19.93291 6.7976,-26.74156 26.6132,-41.38646 56.075,-41.44274 17.8614,-0.0341 32.0577,5.61646 43.91,17.47747 10.5653,10.57308 15.4644,21.97469 15.4881,36.04507 0.031,18.36181 -4.176,26.03877 -40.5301,73.9601 l -29.5863,39 35.2273,0.26297 c 24.3235,0.18158 35.6481,0.61217 36.5867,1.39112 1.0714,0.88921 1.3016,4.8576 1.0868,18.73703 L 1182.5,349.5 l -60.6401,0.2577 c -54.6479,0.23224 -60.7003,0.10064 -61.25,-1.33178 z"
       id="path7" />
    <path
       style="fill:#000000"
       d="m 955.49261,346.63655 c -8.36239,-20.01402 -76.43783,-199.33693 -76.05348,-200.33851 0.41097,-1.07098 4.48744,-1.28595 20.27646,-1.06926 l 19.76207,0.27122 19.58368,54.73917 c 10.77102,30.10655 19.79736,54.95287 20.05855,55.21405 0.26118,0.26119 6.31222,-15.82144 13.44675,-35.73917 L 985.5385,183.5 l 20.3458,-0.27107 c 19.1175,-0.25471 20.3052,-0.16414 19.6726,1.5 -0.3703,0.97409 -14.9025,38.55857 -32.29381,83.52107 -29.57978,76.47399 -31.77362,81.75 -33.99283,81.75 -1.74765,0 -2.74236,-0.88564 -3.77765,-3.36345 z"
       id="path6" />
    <path
       style="fill:#000000"
       d="M 553.67491,349.34158 C 553.30371,348.97038 553,340.41667 553,330.33333 V 312 h 57.02207 57.02206 l -0.27206,18.75 -0.27207,18.75 -56.07509,0.25825 c -30.84129,0.14203 -56.37879,-0.0455 -56.75,-0.41667 z"
       id="path5" />
    <path
       style="fill:#000000"
       d="M 360.6431,348.51232 C 360.2894,347.59058 360,328.87323 360,306.91821 V 267 h 20.5 20.5 v 22.64549 22.64548 l 12.25,-0.57431 c 40.93407,-1.9191 61.84085,-21.59653 63.48095,-59.74819 0.98579,-22.93102 -4.09334,-38.60185 -16.48064,-50.84831 C 448.22662,189.23317 435.05622,184.17893 413.75,183.27529 L 401,182.73454 V 205.36727 228 H 380.5 360 l 0.0153,-40.25 c 0.008,-22.1375 0.40164,-40.85968 0.87382,-41.60485 1.34132,-2.1168 61.19948,-1.05427 74.11087,1.31552 46.06856,8.45554 71.50208,31.52359 80.06317,72.6168 2.50868,12.04165 3.05401,37.42263 1.06188,49.42253 -6.15786,37.09281 -27.69306,61.70159 -64.12505,73.27722 -17.44258,5.54207 -25.50273,6.48443 -59.6069,6.96901 -28.4261,0.40389 -31.16232,0.29755 -31.75,-1.23391 z"
       id="path4" />
    <path
       style="fill:#000000"
       d="M 187.66667,349.33333 C 187.3,348.96667 187,321.96667 187,289.33333 V 230 h 35.81634 c 21.56532,0 38.1613,-0.43349 41.70979,-1.08946 13.43801,-2.48415 20.49714,-9.08412 21.27913,-19.895 0.23088,-3.19198 -0.13516,-7.4851 -0.81342,-9.54028 -1.75151,-5.3071 -7.14582,-10.84615 -13.2502,-13.60571 -5.19037,-2.34637 -5.63064,-2.37251 -45.01351,-2.67251 l -39.77187,-0.30295 0.27187,-18.69705 L 187.5,145.5 H 230 c 41.25867,0 42.72962,0.0665 50.36166,2.27757 C 310.53075,156.51775 326,176.42189 326,206.5 c 0,17.94476 -5.60741,32.12226 -16.91645,42.77072 -7.88994,7.42909 -15.48624,11.64954 -27.61044,15.34015 -8.4202,2.56311 -10.40575,2.75745 -32.22311,3.15384 L 226,268.18713 V 309.09356 350 h -18.83333 c -10.35834,0 -19.13334,-0.3 -19.5,-0.66667 z"
       id="path3" />
    <path
       style="fill:#000000"
       d="M 1472,216 V 74 H 1336 1200 V 55.5 37 H 1354.5 1509 V 197.5 358 h -18.5 -18.5 z"
       id="path2" />
    <path
       style="display:inline;fill:#ffffff;fill-opacity:1"
       d="m 1299.3546,226.16305 c 10.9322,-3.89367 16.5744,-10.60167 16.6234,-19.76383 0.051,-9.54687 -4.4676,-16.31314 -13.8695,-20.76795 -6.606,-3.13008 -6.616,-3.1314 -26.3585,-3.4717 L 1256,181.81914 v 23.73062 23.73062 l 18.75,-0.51608 c 15.5734,-0.42864 19.7419,-0.86934 24.6046,-2.60125 z"
       id="path9" />
    <path
       style="fill:#000000"
       d="M 44.54615,451.75 C 44.18577,445.0125 44.027958,374.475 44.195457,295 L 44.5,150.5 63.25,150.22793 82,149.95587 V 288.47793 427 H 218 354 V 445.5 464 H 199.60069 45.201387 Z"
       id="path1" />
  </g>
</svg>
